<svg id="visual" viewBox="0 0 2500 700" width="2500" height="700" xmlns="http://www.w3.org/2000/svg" xmlns:xlink="http://www.w3.org/1999/xlink" version="1.1"><path d="M0 119L27.8 120.8C55.7 122.7 111.3 126.3 166.8 118.8C222.3 111.3 277.7 92.7 333.2 82.8C388.7 73 444.3 72 500 78C555.7 84 611.3 97 666.8 98.3C722.3 99.7 777.7 89.3 833.2 86.3C888.7 83.3 944.3 87.7 1000 90C1055.7 92.3 1111.3 92.7 1166.8 88.8C1222.3 85 1277.7 77 1333.2 85.8C1388.7 94.7 1444.3 120.3 1500 132.2C1555.7 144 1611.3 142 1666.8 141.7C1722.3 141.3 1777.7 142.7 1833.2 137C1888.7 131.3 1944.3 118.7 2000 111.5C2055.7 104.3 2111.3 102.7 2166.8 98.3C2222.3 94 2277.7 87 2333.2 86.7C2388.7 86.3 2444.3 92.7 2472.2 95.8L2500 99L2500 0L2472.2 0C2444.3 0 2388.7 0 2333.2 0C2277.7 0 2222.3 0 2166.8 0C2111.3 0 2055.7 0 2000 0C1944.3 0 1888.7 0 1833.2 0C1777.7 0 1722.3 0 1666.8 0C1611.3 0 1555.7 0 1500 0C1444.3 0 1388.7 0 1333.2 0C1277.7 0 1222.3 0 1166.8 0C1111.3 0 1055.7 0 1000 0C944.3 0 888.7 0 833.2 0C777.7 0 722.3 0 666.8 0C611.3 0 555.7 0 500 0C444.3 0 388.7 0 333.2 0C277.7 0 222.3 0 166.8 0C111.3 0 55.7 0 27.8 0L0 0Z" fill="#191024" stroke-linecap="round" stroke-linejoin="miter"></path></svg>